<?xml version="1.0" encoding="utf-8"?>
<!-- Generator: Adobe Illustrator 22.0.1, SVG Export Plug-In . SVG Version: 6.00 Build 0)  -->
<svg version="1.1" id="Layer_1" xmlns="http://www.w3.org/2000/svg" xmlns:xlink="http://www.w3.org/1999/xlink" x="0px" y="0px"
	 viewBox="0 0 396 288" style="enable-background:new 0 0 396 288;" xml:space="preserve">
<style type="text/css">
	.st0{display:none;fill:#FFFFFF;}
	.st1{fill:url(#SVGID_1_);}
	.st2{fill:#003757;}
	.st3{fill:#7D7D7D;}
	.st4{fill:url(#SVGID_2_);}
	.st5{opacity:0.9;fill:url(#SVGID_3_);enable-background:new    ;}
	.st6{fill:url(#SVGID_4_);}
	.st7{fill:url(#SVGID_5_);}
	.st8{fill:url(#SVGID_6_);}
	.st9{fill:url(#SVGID_7_);}
	.st10{fill:url(#SVGID_8_);}
	.st11{fill:#FFFFFF;}
	.st12{display:none;fill:url(#SVGID_9_);}
</style>
<title>14657 [Converted]</title>
<g id="Layer_1_1_">
	<rect class="st0" width="396" height="288"/>
	
		<linearGradient id="SVGID_1_" gradientUnits="userSpaceOnUse" x1="77.5571" y1="61.497" x2="47.057" y2="91.497" gradientTransform="matrix(1 0 0 -1 0 290)">
		<stop  offset="0" style="stop-color:#E30000"/>
		<stop  offset="6.000000e-02" style="stop-color:#9A1B2B"/>
		<stop  offset="0.11" style="stop-color:#583452"/>
		<stop  offset="0.16" style="stop-color:#28466D"/>
		<stop  offset="0.2" style="stop-color:#0B517F"/>
		<stop  offset="0.22" style="stop-color:#005585"/>
		<stop  offset="0.26" style="stop-color:#005483"/>
		<stop  offset="0.98" style="stop-color:#004166"/>
	</linearGradient>
	<polygon class="st1" points="31.3,199.7 63.2,215.2 64.7,199.2 	"/>
	<polygon class="st2" points="371.7,106.5 353.6,96.7 348.7,118.2 	"/>
	<path class="st3" d="M82.6,233.8l-0.1-0.5L59.8,55.5l281.7,24.7l-14.9,120.5L82.6,233.8z M60.9,56.6l22.5,176.1l242.3-32.9
		l14.7-118.7L60.9,56.6z"/>
	
		<linearGradient id="SVGID_2_" gradientUnits="userSpaceOnUse" x1="209.9846" y1="131.4667" x2="135.3146" y2="253.4667" gradientTransform="matrix(1 0 0 -1 0 290)">
		<stop  offset="0" style="stop-color:#E30000"/>
		<stop  offset="0.64" style="stop-color:#F71D1D"/>
		<stop  offset="1" style="stop-color:#FF2828"/>
	</linearGradient>
	<polygon class="st4" points="34.3,73.2 59.4,220.9 354.7,171.7 360.1,95.4 	"/>
	
		<linearGradient id="SVGID_3_" gradientUnits="userSpaceOnUse" x1="30.0287" y1="21.3118" x2="260.6987" y2="194.6418" gradientTransform="matrix(1 0 0 -1 0 290)">
		<stop  offset="0" style="stop-color:#FF8000"/>
		<stop  offset="8.000000e-02" style="stop-color:#FF8A00"/>
		<stop  offset="0.5" style="stop-color:#FFB900"/>
		<stop  offset="0.82" style="stop-color:#FFD600"/>
		<stop  offset="1" style="stop-color:#FFE100"/>
	</linearGradient>
	<polygon class="st5" points="45.1,95.4 31.3,199.7 343.9,194.8 331.1,64.1 	"/>
	
		<linearGradient id="SVGID_4_" gradientUnits="userSpaceOnUse" x1="280.02" y1="153.21" x2="371.74" y2="153.21" gradientTransform="matrix(1 0 0 -1 0 290)">
		<stop  offset="0" style="stop-color:#E30000"/>
		<stop  offset="6.000000e-02" style="stop-color:#9A1B2B"/>
		<stop  offset="0.11" style="stop-color:#583452"/>
		<stop  offset="0.16" style="stop-color:#28466D"/>
		<stop  offset="0.2" style="stop-color:#0B517F"/>
		<stop  offset="0.22" style="stop-color:#005585"/>
		<stop  offset="0.26" style="stop-color:#005483"/>
		<stop  offset="0.98" style="stop-color:#004166"/>
	</linearGradient>
	<polygon class="st6" points="280,100.4 280.2,173.2 369.5,164.3 371.7,106.5 	"/>
	
		<linearGradient id="SVGID_5_" gradientUnits="userSpaceOnUse" x1="76.98" y1="201.78" x2="76.98" y2="125.72" gradientTransform="matrix(1 0 0 -1 0 290)">
		<stop  offset="0" style="stop-color:#005585"/>
		<stop  offset="6.000000e-02" style="stop-color:#005483"/>
		<stop  offset="0.98" style="stop-color:#004166"/>
	</linearGradient>
	<path class="st7" d="M86.6,168.6l-15.1,4.7v0.1c3.1-0.2,5.1-0.3,6.2-0.3h9v3.7H67.3v-5.6l14.7-4.6v-0.1l-14.7-4.9V156h19.3v3.9
		h-9.1c-0.4,0-0.9,0-1.5,0s-2-0.1-4.5-0.2v0.1l15.1,5V168.6z"/>
	
		<linearGradient id="SVGID_6_" gradientUnits="userSpaceOnUse" x1="76.955" y1="201.78" x2="76.955" y2="125.72" gradientTransform="matrix(1 0 0 -1 0 290)">
		<stop  offset="0" style="stop-color:#005585"/>
		<stop  offset="6.000000e-02" style="stop-color:#005483"/>
		<stop  offset="0.98" style="stop-color:#004166"/>
	</linearGradient>
	<path class="st8" d="M86.6,140.4v11.2H67.3v-11.2h3.3v7.1h4.2v-6.6h3.3v6.6h5v-7.1H86.6z"/>
	
		<linearGradient id="SVGID_7_" gradientUnits="userSpaceOnUse" x1="76.9461" y1="201.78" x2="76.9461" y2="125.72" gradientTransform="matrix(1 0 0 -1 0 290)">
		<stop  offset="0" style="stop-color:#005585"/>
		<stop  offset="6.000000e-02" style="stop-color:#005483"/>
		<stop  offset="0.98" style="stop-color:#004166"/>
	</linearGradient>
	<path class="st9" d="M75.8,129.5v-7.7h10c0.4,1.2,0.7,2.3,0.8,3.5c0.2,1.1,0.2,2.3,0.2,3.4c0,2.9-0.9,5.2-2.6,6.8s-4.2,2.3-7.3,2.3
		c-2.7,0.1-5.4-0.8-7.3-2.8c-1.8-2-2.8-4.7-2.6-7.5c0-2,0.4-4,1.2-5.8l3.3,1.4c-0.7,1.4-1,2.9-1,4.4c-0.1,1.6,0.6,3.2,1.8,4.3
		c1.3,1.1,3,1.7,4.7,1.7c1.7,0.1,3.4-0.3,4.8-1.3c1.1-0.9,1.7-2.3,1.7-3.8c0-0.9-0.1-1.8-0.3-2.6h-4v3.7L75.8,129.5z"/>
	
		<linearGradient id="SVGID_8_" gradientUnits="userSpaceOnUse" x1="76.915" y1="201.78" x2="76.915" y2="125.72" gradientTransform="matrix(1 0 0 -1 0 290)">
		<stop  offset="0" style="stop-color:#005585"/>
		<stop  offset="6.000000e-02" style="stop-color:#005483"/>
		<stop  offset="0.98" style="stop-color:#004166"/>
	</linearGradient>
	<path class="st10" d="M86.6,105.7l-4.6,1.4v7.1l4.6,1.4v4.4l-19.3-6.9v-5.1l19.3-6.9V105.7z M78.6,108.1l-7,2.2
		c-0.5,0.2-1,0.3-1.3,0.4c1.1,0.3,3.9,1.1,8.3,2.5L78.6,108.1z"/>
	<path class="st11" d="M298.3,160.6l6.3-27.8H296v-4.2h14v3.2l-6.4,28.8H298.3z"/>
	<path class="st11" d="M328,158.5c-3.5,3.4-9.1,3.4-12.5,0c-1.5-1.9-2.3-4.3-2.2-6.8v-14.1c-0.1-2.5,0.6-4.9,2.1-6.9
		c1.4-1.7,3.5-2.5,6.4-2.5s4.9,0.8,6.3,2.5c1.5,2,2.3,4.4,2.1,6.9v14.1C330.3,154.2,329.5,156.6,328,158.5z M321.7,156.3
		c1.9,0,2.8-1.6,2.8-4.7v-13.9c0-0.4,0-0.8,0-1.1s-0.1-0.7-0.1-1.1c-0.1-0.3-0.2-0.7-0.3-1c-0.1-0.3-0.3-0.6-0.5-0.8
		c-0.2-0.3-0.5-0.5-0.8-0.6c-0.3-0.1-0.7-0.2-1.1-0.2c-0.4,0-0.9,0.1-1.3,0.3c-0.3,0.2-0.6,0.4-0.8,0.7c-0.2,0.3-0.4,0.7-0.5,1.1
		c-0.1,0.4-0.2,0.8-0.2,1.3c0,0.4,0,0.9,0,1.4v13.9C318.9,154.8,319.8,156.3,321.7,156.3z"/>
	<path class="st11" d="M336.8,139c-1.2,0.1-2.3-0.3-3.1-1.2c-0.7-1-1.1-2.3-1-3.5v-1c-0.1-1.3,0.3-2.5,1-3.5c0.8-0.8,2-1.2,3.2-1.1
		c1.2-0.1,2.3,0.3,3.2,1.1c0.7,1,1.1,2.2,1,3.5v1.1c0.1,1.3-0.3,2.5-1,3.5C339.2,138.7,338,139.1,336.8,139z M336.8,136.8
		c0.2,0,0.4,0,0.6-0.1c0.2-0.1,0.3-0.2,0.4-0.4c0.1-0.2,0.2-0.4,0.2-0.6c0.1-0.2,0.1-0.5,0.1-0.7c0-0.2,0-0.5,0-0.8v-1
		c0-0.3,0-0.6,0-0.8c0-0.2,0-0.4-0.1-0.6c0-0.2-0.1-0.4-0.2-0.5c-0.1-0.1-0.2-0.2-0.4-0.3c-0.2-0.1-0.4-0.1-0.6-0.1
		c-0.2,0-0.4,0-0.6,0.1c-0.2,0.1-0.3,0.2-0.4,0.3c-0.1,0.2-0.2,0.3-0.2,0.5c-0.1,0.2-0.1,0.4-0.1,0.6c0,0.2,0,0.5,0,0.8v1
		c0,0.3,0,0.7,0,1c0,0.3,0.1,0.5,0.2,0.8c0.1,0.2,0.2,0.4,0.4,0.6C336.3,136.8,336.5,136.8,336.8,136.8L336.8,136.8z M339.3,147.4
		l5.4-18.7h2.3l-5.3,18.7H339.3z M349.3,147.5c-1.2,0.1-2.3-0.3-3.1-1.2c-0.7-1-1.1-2.3-1-3.5v-1c-0.1-1.3,0.3-2.5,1-3.5
		c0.8-0.8,2-1.3,3.2-1.1c1.2-0.1,2.3,0.3,3.2,1.1c0.7,1,1.1,2.2,1,3.5v1.1c0.1,1.3-0.3,2.5-1,3.5
		C351.7,147.2,350.5,147.6,349.3,147.5L349.3,147.5z M349.3,145.3c0.2,0,0.4,0,0.6-0.1c0.2-0.1,0.3-0.2,0.4-0.3
		c0.1-0.2,0.2-0.4,0.2-0.6c0.1-0.2,0.1-0.5,0.1-0.7c0-0.2,0-0.5,0-0.8v-1c0-0.3,0-0.6,0-0.8c0-0.2-0.1-0.4-0.1-0.7
		c0-0.2-0.1-0.4-0.2-0.5c-0.1-0.1-0.2-0.2-0.4-0.3c-0.2-0.1-0.4-0.1-0.6-0.1c-0.2,0-0.4,0-0.6,0.1c-0.2,0.1-0.3,0.2-0.4,0.3
		c-0.1,0.2-0.2,0.3-0.2,0.5c0,0.2-0.1,0.4-0.1,0.6c0,0.2,0,0.5,0,0.8v1c0,0.3,0,0.7,0,1c0,0.3,0.1,0.5,0.2,0.8
		c0.1,0.2,0.2,0.4,0.4,0.6C348.8,145.2,349,145.3,349.3,145.3L349.3,145.3z"/>
	<path class="st11" d="M342.2,156.3c0.1,1.1-0.3,2.3-1,3.2c-1.7,1.5-4.2,1.5-6,0c-1.4-1.9-1.4-4.5,0-6.4c0.8-0.8,1.9-1.2,3-1.1
		c1.1-0.1,2.2,0.3,3,1.1C342,154,342.3,155.2,342.2,156.3z M336.1,156.3c-0.1,0.7,0.1,1.5,0.5,2.1c0.4,0.5,1,0.7,1.6,0.7
		c1.4,0,2.1-0.9,2.1-2.8s-0.7-2.8-2.1-2.8c-0.6,0-1.2,0.2-1.6,0.7C336.2,154.8,336,155.6,336.1,156.3z"/>
	<path class="st11" d="M345.5,160.5h-1.8v-8.3h4.8v1.4h-3.1v2.1h2.9v1.4h-2.9L345.5,160.5z"/>
	<path class="st11" d="M351.7,160.5H350v-8.3h4.8v1.4h-3.1v2.1h2.9v1.4h-2.9L351.7,160.5z"/>
	<path class="st11" d="M310.8,110.1v8.6c0,0.9-0.2,1.8-0.7,2.6c-0.5,0.7-1.1,1.3-1.9,1.7c-0.9,0.4-2,0.6-3,0.6
		c-1.5,0.1-2.9-0.4-4-1.3c-1-0.9-1.5-2.2-1.4-3.6v-8.6h2.9v8.2c-0.1,0.8,0.2,1.6,0.6,2.3c0.6,0.5,1.3,0.8,2.1,0.7
		c0.7,0.1,1.5-0.2,2-0.7c0.5-0.7,0.7-1.5,0.6-2.3v-8.1H310.8z"/>
	<path class="st11" d="M323.1,114.2c0.1,1.2-0.4,2.5-1.4,3.3c-1.1,0.8-2.5,1.2-3.9,1.1h-1.2v4.7h-2.9v-13.3h4.3
		c1.3-0.1,2.6,0.3,3.7,1C322.7,111.9,323.2,113,323.1,114.2z M316.6,116.3h0.9c0.7,0.1,1.4-0.1,2-0.5c0.9-0.8,0.9-2.1,0.1-3
		c-0.5-0.4-1.1-0.5-1.7-0.5h-1.3L316.6,116.3z"/>
	<path class="st11" d="M330.5,123.4h-2.9v-11h-3.7V110h10.2v2.3h-3.7V123.4z"/>
	<path class="st11" d="M348.1,116.7c0.1,1.8-0.5,3.7-1.7,5.1c-2.7,2.4-6.8,2.4-9.5,0c-1.2-1.4-1.8-3.2-1.7-5.1
		c-0.1-1.8,0.5-3.7,1.7-5.1c1.3-1.2,3-1.9,4.8-1.8c1.8-0.1,3.5,0.5,4.8,1.8C347.6,113.1,348.2,114.9,348.1,116.7z M338.2,116.7
		c-0.1,1.2,0.2,2.4,0.9,3.4c0.6,0.8,1.6,1.2,2.6,1.1c2.3,0,3.4-1.5,3.4-4.5c0-3-1.1-4.5-3.4-4.5c-1-0.1-2,0.4-2.6,1.1
		C338.4,114.3,338.1,115.5,338.2,116.7z"/>
	<path class="st11" d="M122.3,178.8c-14,0-21.4-8-22.1-24l12.7-2.6c0.3,10.4,3.3,15.6,9,15.6c1.9,0.1,3.7-0.6,4.9-2
		c1.1-1.5,1.7-3.4,1.6-5.4c0-2.1-0.4-4.1-1.2-6c-0.7-1.6-1.6-3.1-2.8-4.4c-1.4-1.5-2.9-2.9-4.5-4.3l-10.5-9
		c-2.8-2.3-5.1-5.1-6.9-8.3c-1.6-3.3-2.4-7-2.3-10.7c0-6.1,1.8-10.9,5.4-14.2s8.6-5.1,15-5.2c2.6-0.1,5.2,0.3,7.7,1.1
		c2,0.6,3.9,1.6,5.6,3c1.5,1.3,2.7,2.9,3.6,4.7c1,1.8,1.7,3.8,2.2,5.8c0.5,2.2,0.8,4.5,1,6.7l-12.4,2.4c-0.1-1.6-0.2-3-0.3-4.1
		c-0.1-1.2-0.4-2.4-0.7-3.6c-0.3-1-0.7-2-1.4-2.9c-0.6-0.8-1.4-1.4-2.3-1.8c-1-0.5-2.2-0.6-3.3-0.5c-1.9,0-3.6,0.8-4.9,2.1
		c-1.2,1.4-1.8,3.3-1.7,5.2c-0.1,2.2,0.4,4.3,1.5,6.2c1.3,2,2.9,3.7,4.7,5.2l10.4,8.9c1.6,1.4,3.1,2.9,4.5,4.5
		c1.4,1.6,2.6,3.2,3.7,5c1.2,1.9,2.1,4,2.7,6.2c0.6,2.3,0.9,4.7,0.9,7.1c0,5.7-1.8,10.4-5.5,13.9C133.1,177,128.3,178.8,122.3,178.8
		z"/>
	<path class="st11" d="M146.1,177.8l16.2-78.6h15.1l16.2,78.6h-13.5l-3.2-18.3h-13.8l-3.3,18.3H146.1z M164.6,150.2h10.7l-5.3-32.3
		L164.6,150.2z"/>
	<path class="st11" d="M201,177.8V99.2h14.5v68.7h19.1v9.9H201z"/>
	<path class="st11" d="M241.8,177.8V99.2h33.4v10.1h-18.9v22.6h14.9V142h-14.9v25.9h19.1v9.9L241.8,177.8z"/>
	
		<radialGradient id="SVGID_9_" cx="539.2449" cy="-5779.2837" r="73" gradientTransform="matrix(2.42 0 0 -0.24 -1120.8199 -1139.3)" gradientUnits="userSpaceOnUse">
		<stop  offset="0" style="stop-color:#D6D6D6"/>
		<stop  offset="0.33" style="stop-color:#EAEAEA"/>
		<stop  offset="0.7" style="stop-color:#FAFAFA"/>
		<stop  offset="1" style="stop-color:#FFFFFF"/>
	</radialGradient>
	<ellipse class="st12" cx="182.2" cy="248.3" rx="176.4" ry="17.5"/>
</g>
</svg>
